<svg width="351" height="361" viewBox="0 0 351 361" fill="none" xmlns="http://www.w3.org/2000/svg">
  <defs>
    <linearGradient id="yd-gold" x1="17" y1="34" x2="314" y2="292" gradientUnits="userSpaceOnUse">
      <stop stop-color="#CFB867"/>
      <stop offset="0.34" stop-color="#9F8739"/>
      <stop offset="0.67" stop-color="#DCCB7F"/>
      <stop offset="1" stop-color="#9D8337"/>
    </linearGradient>
  </defs>
  <path
    d="M188.1 20.8C165 29 148.9 55 147.6 84.7C146.7 104.2 152.5 122.3 165.7 138.2C174 148.1 184.7 156.1 197.7 161.9C206.5 150.3 213.4 136.7 218 121.8C223.8 102.9 225.8 82.7 223.6 63.9C220.8 40 208.8 24.3 188.1 20.8Z"
    stroke="url(#yd-gold)"
    stroke-width="4.2"
    stroke-linecap="round"
    stroke-linejoin="round"
  />
  <path
    d="M169.7 160.5C148.8 176.8 126.1 190.3 103 201C81.8 210.9 61.6 217.1 43.6 219.1C31.6 220.5 22.4 219.8 16.3 216.6C11.4 214.1 8.9 209.8 8.9 204.1C8.9 195.8 14.7 188.1 26.5 181.4C44 171.5 67.6 166 97 165.4C124.4 164.9 155.7 169 189.6 177.8C223.2 186.6 255.7 191.5 286.9 192.4C312.6 193.2 331 191.3 342 186.9"
    stroke="url(#yd-gold)"
    stroke-width="5.5"
    stroke-linecap="round"
    stroke-linejoin="round"
  />
  <path
    d="M183 158.5C196.4 174.4 214 188.2 235.8 199.5C256.9 210.4 276.8 216.8 294.6 218.6C309.4 220 320.8 218.4 328.2 213.5C333.3 210.1 335.9 205.5 335.9 199.5C335.9 191.7 331.7 184.4 323.1 177.8C309.3 167.1 289.4 160.4 263.4 157.9C234.4 155 201.2 157.6 164.2 166.2C127.8 174.7 93.2 179.2 60.6 179.8C36.4 180.2 18.8 178.5 8.1 174.7"
    stroke="url(#yd-gold)"
    stroke-width="5.5"
    stroke-linecap="round"
    stroke-linejoin="round"
  />
  <path
    d="M175.6 146.5C183.5 162.7 194.3 178 208 192.4"
    stroke="url(#yd-gold)"
    stroke-width="2.2"
    stroke-linecap="round"
  />
  <text
    x="175.5"
    y="334"
    text-anchor="middle"
    font-family="Avenir, Montserrat, Helvetica, Arial, sans-serif"
    font-size="46"
    font-weight="300"
    letter-spacing="9"
    fill="url(#yd-gold)"
  >YD DAY SPA</text>
</svg>
